<svg xmlns="http://www.w3.org/2000/svg" viewBox="-1 -1 21.5 5.5" stroke-width="0.33" stroke-linecap="round" stroke-linejoin="round">
      <path d="M0 0 v 1 a 2 2 0 0 0 2 2 h 1 v -1 a 2 2 0 0 0 -2 -2 z m1 1 l 2.5 2.5 m -1.5 -2.5 v 1" fill="#8abf40" stroke="#6f9933"/>
      <path d="M4 0 v 1 a 2 2 0 0 0 2 2 h 1 v -1 a 2 2 0 0 0 -2 -2 z m1 1 l 2.5 2.5 m -1.5 -2.5 v 1" fill="#97A240" stroke="#7A8233"/>
      <path d="M8 0 v 1 a 2 2 0 0 0 2 2 h 1 v -1 a 2 2 0 0 0 -2 -2 z m1 1 l 2.5 2.5 m -1.5 -2.5 v 1" fill="#A58540" stroke="#846B33"/>
      <path d="M12 0 v 1 a 2 2 0 0 0 2 2 h 1 v -1 a 2 2 0 0 0 -2 -2 z m1 1 l 2.5 2.5 m -1.5 -2.5 v 1" fill="#B26740" stroke="#8F5333"/>
      <path d="M16 0 v 1 a 2 2 0 0 0 2 2 h 1 v -1 a 2 2 0 0 0 -2 -2 z m1 1 l 2.5 2.5 m -1.5 -2.5 v 1" fill="#BF4A40" stroke="#993C33"/>
</svg>