<?xml version="1.0" standalone="no"?>
<!DOCTYPE svg PUBLIC "-//W3C//DTD SVG 20010904//EN"
 "http://www.w3.org/TR/2001/REC-SVG-20010904/DTD/svg10.dtd">
<svg version="1.0" xmlns="http://www.w3.org/2000/svg"
 width="700.000000pt" height="700.000000pt" viewBox="0 0 700.000000 700.000000"
 preserveAspectRatio="xMidYMid meet">
<metadata>
Created by potrace 1.11, written by Peter Selinger 2001-2013
</metadata>
<g transform="translate(0.000000,700.000000) scale(0.100000,-0.100000)"
fill="#000000" stroke="none">
<path d="M3459 6766 c-48 -15 -73 -35 -98 -78 -19 -31 -22 -56 -26 -179 -5
-141 -7 -173 -21 -274 -3 -27 -7 -61 -9 -75 -53 -430 -260 -950 -524 -1315
-98 -135 -109 -175 -71 -249 38 -75 104 -103 197 -81 49 12 267 205 374 333
l37 43 -19 -88 c-38 -185 -111 -391 -205 -580 -204 -409 -507 -745 -889 -985
-130 -82 -164 -125 -159 -201 6 -86 73 -147 159 -147 42 0 63 7 115 38 l63 39
26 -27 c37 -37 83 -53 139 -48 57 6 138 54 307 181 105 79 256 226 339 332 22
28 43 54 47 59 15 17 -55 -198 -103 -319 -112 -282 -292 -574 -494 -801 -79
-89 -219 -227 -269 -265 -16 -13 -37 -30 -45 -38 -8 -8 -57 -46 -109 -84 -182
-134 -408 -259 -611 -337 -110 -42 -147 -60 -171 -87 -28 -29 -48 -90 -42
-127 6 -40 47 -103 73 -111 11 -3 20 -10 20 -15 0 -19 78 -16 150 6 41 13 77
24 80 24 3 0 5 -24 6 -53 1 -60 24 -101 76 -131 53 -32 111 -25 230 27 116 51
293 142 319 164 24 20 26 17 21 -42 -4 -47 -1 -61 22 -95 14 -22 41 -47 58
-56 43 -23 119 -22 155 1 28 17 133 95 143 105 3 3 34 30 70 60 94 80 231 221
317 327 41 51 77 93 79 93 2 0 2 -37 -1 -82 -2 -46 -7 -175 -10 -288 -10 -304
-12 -384 -21 -620 -9 -275 -8 -295 14 -339 51 -100 249 -161 403 -125 74 17
152 58 184 95 40 49 42 64 30 384 -15 442 -23 684 -40 1215 -4 102 -8 227 -10
278 l-3 92 41 -47 c72 -82 239 -243 312 -301 39 -31 72 -59 75 -62 12 -16 198
-136 226 -146 81 -30 174 11 203 89 14 36 14 93 1 118 -6 10 -9 19 -6 19 2 0
33 -18 70 -40 93 -56 269 -145 350 -175 54 -20 79 -25 110 -19 83 14 142 88
134 169 l-5 42 61 -24 c85 -34 155 -34 201 1 82 63 91 167 20 241 -20 21 -67
46 -140 75 -105 42 -295 130 -319 148 -6 5 -31 20 -56 33 -68 37 -256 165
-340 233 -379 308 -681 718 -853 1161 -54 140 -54 141 10 73 32 -34 69 -72 83
-84 14 -12 39 -34 55 -49 86 -77 155 -96 222 -61 35 17 29 22 88 -64 44 -62
75 -90 119 -106 123 -43 239 81 196 210 -6 20 -17 42 -24 49 -7 6 -44 59 -83
117 -285 424 -474 812 -629 1290 -34 104 -120 434 -130 499 -3 18 -8 43 -10
55 -5 25 -21 119 -29 162 -5 33 -10 73 -20 159 -3 28 -8 66 -10 85 -9 73 -16
180 -20 328 -3 133 -7 157 -25 190 -36 64 -115 98 -181 78z"/>
</g>
</svg>
